<svg width="1400" height="335" viewBox="0 0 1400 335" fill="none" xmlns="http://www.w3.org/2000/svg">
<g opacity="0.6">
<path d="M1756.41 215.847L1476.06 284.385L1219.6 120.922C1219.6 120.922 487.751 266.542 430.412 274.963C373.073 283.383 223.991 298.242 223.991 298.242C223.991 298.242 1.26285 266.673 -82.3286 263.779C-165.92 260.885 -299.967 254.356 -299.967 254.356" stroke="white" stroke-opacity="0.4" stroke-width="0.5" stroke-miterlimit="10"/>
<path d="M1756.41 215.847L1473.75 289.631C1473.75 289.631 1193.78 143.654 1185.5 143.096C1177.22 142.538 487.751 247.353 430.412 255.773C373.073 264.193 194.611 302.255 194.611 302.255C194.611 302.255 -45.7892 272.654 -120.09 270.084C-194.396 267.511 -318.416 252.408 -318.416 252.408" stroke="white" stroke-opacity="0.4" stroke-width="0.5" stroke-miterlimit="10"/>
<path d="M1756.41 215.847L1471.44 294.874C1471.44 294.874 1167.97 166.378 1151.41 165.266C1134.85 164.15 487.756 228.16 430.417 236.58C373.078 245.001 165.236 306.261 165.236 306.261C165.236 306.261 -92.8357 278.628 -157.851 276.379C-222.866 274.127 -336.864 250.447 -336.864 250.447" stroke="white" stroke-opacity="0.4" stroke-width="0.5" stroke-miterlimit="10"/>
<path d="M1756.41 215.847L1469.13 300.12C1469.13 300.12 1142.15 189.109 1117.31 187.435C1092.46 185.761 487.756 208.967 430.417 217.387C373.078 225.808 135.862 310.267 135.862 310.267C135.862 310.267 -139.882 284.602 -195.606 282.674C-251.336 280.746 -355.303 248.489 -355.303 248.489" stroke="white" stroke-opacity="0.4" stroke-width="0.5" stroke-miterlimit="10"/>
<path d="M1756.41 215.847L1466.83 305.362C1466.83 305.362 1116.33 211.834 1083.21 209.605C1050.08 207.373 487.761 189.774 430.417 198.194C373.078 206.614 106.481 314.276 106.481 314.276C106.481 314.276 -186.935 290.58 -233.373 288.972C-279.812 287.365 -373.757 246.53 -373.757 246.53" stroke="white" stroke-opacity="0.4" stroke-width="0.5" stroke-miterlimit="10"/>
<path d="M1756.41 215.847L1464.52 310.608C1464.52 310.608 1090.52 234.565 1049.11 231.775C1007.7 228.985 487.756 170.582 430.417 179.002C373.078 187.422 77.1069 318.283 77.1069 318.283C77.1069 318.283 -233.976 296.555 -271.129 295.268C-308.282 293.982 -392.2 244.573 -392.2 244.573" stroke="white" stroke-opacity="0.4" stroke-width="0.5" stroke-miterlimit="10"/>
<path d="M1756.41 215.846L1462.21 315.853C1462.21 315.853 1064.7 257.296 1015.01 253.948C965.311 250.6 487.756 151.391 430.412 159.808C373.073 168.228 47.7218 322.292 47.7218 322.292C47.7218 322.292 -281.038 302.531 -308.9 301.565C-336.762 300.6 -410.659 242.614 -410.659 242.614" stroke="white" stroke-opacity="0.4" stroke-width="0.5" stroke-miterlimit="10"/>
<path d="M1756.41 215.847L1459.9 321.097C1459.9 321.097 1038.88 280.022 980.908 276.119C922.93 272.213 487.756 132.2 430.417 140.616C373.078 149.037 18.347 326.299 18.347 326.299C18.347 326.299 -328.079 308.507 -346.656 307.862C-365.232 307.22 -429.097 240.657 -429.097 240.657" stroke="white" stroke-opacity="0.4" stroke-width="0.5" stroke-miterlimit="10"/>
<path d="M1756.41 215.847L1457.59 326.342C1457.59 326.342 1013.06 302.752 946.806 298.288C880.55 293.824 487.756 113.006 430.417 121.423C373.078 129.843 -11.0279 330.309 -11.0279 330.309C-11.0279 330.309 -375.126 314.484 -384.417 314.16C-393.703 313.839 -447.546 238.698 -447.546 238.698" stroke="white" stroke-opacity="0.4" stroke-width="0.5" stroke-miterlimit="10"/>
<path d="M1756.41 215.847L1455.28 331.589C1455.28 331.589 987.245 325.48 912.704 320.462C838.164 315.44 487.751 93.8169 430.412 102.234C373.073 110.654 -40.413 334.318 -40.413 334.318L-422.183 320.462L-466 236.747" stroke="white" stroke-opacity="0.4" stroke-width="0.5" stroke-miterlimit="10"/>
</g>
<path opacity="0.125" d="M1564.32 109.324C1370.81 112.09 1355.23 137.29 1229.41 124.576C1103.59 111.862 988.689 72.0541 849.306 100.4C709.923 128.75 629.123 219.38 537.61 180.756C446.097 142.132 449.256 87.1956 369.877 93.3579C290.494 99.5203 201.848 159.879 139.121 160.425C85.1185 160.894 134.544 106.139 -13.8472 109.426" stroke="white" stroke-opacity="0.3" stroke-width="0.828522" stroke-miterlimit="10"/>
<path opacity="0.25" d="M1557.32 104.089C1363.81 106.851 1353.44 157.554 1227.63 144.84C1101.81 132.126 985.259 58.1395 845.876 86.4897C706.494 114.84 630.278 230.085 538.765 191.461C447.251 152.838 478.512 79.0163 399.128 85.1786C319.749 91.341 227.25 163.75 155.802 162.646C101.817 161.813 115.211 87.0988 -33.1504 101.115" stroke="white" stroke-opacity="0.3" stroke-width="0.920417" stroke-miterlimit="10"/>
<path opacity="0.375" d="M1550.33 98.8521C1356.82 101.614 1351.66 177.821 1225.84 165.103C1100.02 152.389 981.833 44.2284 842.451 72.5744C703.068 100.925 631.433 240.781 539.92 202.157C448.406 163.534 507.767 70.8317 428.384 76.9899C349.005 83.1522 252.657 167.044 172.483 164.862C118.515 163.39 95.8787 68.053 -52.4578 92.7997" stroke="white" stroke-opacity="0.3" stroke-width="1.01261" stroke-miterlimit="10"/>
<path opacity="0.5" d="M1543.33 93.6203C1349.82 96.3821 1349.87 198.089 1224.06 185.375C1098.24 172.661 978.403 30.3218 839.021 58.672C699.638 87.0223 632.588 251.49 541.07 212.866C449.557 174.243 537.014 62.6562 457.635 68.8144C378.256 74.9767 278.056 170.449 189.16 167.091C135.213 165.052 76.5417 49.0203 -71.7694 84.5015" stroke="white" stroke-opacity="0.3" stroke-width="1.1045" stroke-miterlimit="10"/>
<path opacity="0.625" d="M1536.34 88.3841C1342.83 91.1459 1348.09 218.352 1222.27 205.638C1096.45 192.924 974.973 16.4109 835.595 44.7569C696.212 73.1071 633.742 262.186 542.229 223.563C450.716 184.939 566.274 54.4679 486.89 60.6302C407.511 66.7926 303.458 173.938 205.845 169.307C151.911 166.748 57.2169 29.9748 -91.0688 76.1862" stroke="white" stroke-opacity="0.3" stroke-width="1.19669" stroke-miterlimit="10"/>
<path opacity="0.75" d="M1529.34 83.1481C1335.83 85.91 1346.31 238.615 1220.49 225.902C1094.67 213.188 971.547 2.50014 832.165 30.8462C692.782 59.1922 634.893 272.887 543.38 234.263C451.866 195.64 595.521 46.2839 516.142 52.4462C436.759 58.6086 328.843 177.521 222.522 171.527C168.597 168.486 37.88 10.9338 -110.38 67.8753" stroke="white" stroke-opacity="0.3" stroke-width="1.28858" stroke-miterlimit="10"/>
<path opacity="0.875" d="M1522.34 77.9119C1328.84 80.6737 1344.52 258.879 1218.7 246.165C1092.88 233.451 968.117 -11.4148 828.734 16.9354C689.352 45.2857 636.047 283.592 544.534 244.968C453.021 206.344 624.776 38.1039 545.393 44.2663C466.014 50.4286 354.224 181.204 239.199 173.748C185.281 170.254 18.5424 -8.10743 -129.688 59.5643" stroke="white" stroke-opacity="0.3" stroke-width="1.38077" stroke-miterlimit="10"/>
<path d="M1515.35 72.676C1321.84 75.4379 1342.73 279.143 1216.91 266.429C1091.09 253.715 964.683 -25.3253 825.3 3.02068C685.917 31.3709 637.194 294.288 545.68 255.665C454.167 217.041 654.018 29.9201 574.639 36.0782C495.256 42.2406 379.588 184.973 255.876 175.964C201.963 172.039 -0.794735 -27.1525 -149 51.2537" stroke="white" stroke-opacity="0.3" stroke-width="1.47267" stroke-miterlimit="10"/>
</svg>
