<svg width="1400" height="344" viewBox="0 0 1400 344" fill="none" xmlns="http://www.w3.org/2000/svg">
<g opacity="0.6">
<path d="M-322 114.209L-41.6516 48.7153L214.806 204.918C214.806 204.918 946.656 65.7658 1004 57.7195C1061.33 49.6732 1210.42 35.4741 1210.42 35.4741C1210.42 35.4741 1433.14 65.6412 1516.74 68.4063C1600.33 71.1714 1734.37 77.4105 1734.37 77.4105" stroke="white" stroke-opacity="0.6" stroke-width="0.5" stroke-miterlimit="10"/>
<path d="M-322 114.209L-39.3416 43.7024C-39.3416 43.7024 240.624 183.196 248.908 183.73C257.192 184.263 946.656 84.1029 1004 76.0566C1061.33 68.0103 1239.8 31.6394 1239.8 31.6394C1239.8 31.6394 1480.2 59.9258 1554.5 62.3812C1628.8 64.8398 1752.82 79.272 1752.82 79.272" stroke="white" stroke-opacity="0.6" stroke-width="0.5" stroke-miterlimit="10"/>
<path d="M-322 114.209L-37.0368 38.6926C-37.0368 38.6926 266.436 161.481 282.999 162.544C299.562 163.611 946.651 102.443 1003.99 94.397C1061.33 86.3508 1269.17 27.811 1269.17 27.811C1269.17 27.811 1527.24 54.2168 1592.26 56.3656C1657.27 58.5177 1771.27 81.1462 1771.27 81.1462" stroke="white" stroke-opacity="0.6" stroke-width="0.5" stroke-miterlimit="10"/>
<path d="M-322 114.21L-34.7269 33.6799C-34.7269 33.6799 292.254 139.76 317.101 141.359C341.948 142.959 946.651 120.784 1003.99 112.738C1061.33 104.691 1298.55 23.9829 1298.55 23.9829C1298.55 23.9829 1574.29 48.508 1630.01 50.3504C1685.74 52.1927 1789.71 83.0175 1789.71 83.0175" stroke="white" stroke-opacity="0.6" stroke-width="0.5" stroke-miterlimit="10"/>
<path d="M-322 114.21L-32.422 28.6704C-32.422 28.6704 318.072 118.045 351.198 120.174C384.329 122.307 946.646 139.124 1003.99 131.078C1061.33 123.032 1327.93 20.1516 1327.93 20.1516C1327.93 20.1516 1621.34 42.7961 1667.78 44.3319C1714.22 45.8677 1808.16 84.8889 1808.16 84.8889" stroke="white" stroke-opacity="0.6" stroke-width="0.5" stroke-miterlimit="10"/>
<path d="M-322 114.209L-30.1122 23.6571C-30.1122 23.6571 343.89 96.3224 385.3 98.9885C426.71 101.655 946.651 157.464 1003.99 149.418C1061.33 141.372 1357.3 16.3228 1357.3 16.3228C1357.3 16.3228 1668.38 37.0866 1705.54 38.3159C1742.69 39.5451 1826.61 86.7595 1826.61 86.7595" stroke="white" stroke-opacity="0.6" stroke-width="0.5" stroke-miterlimit="10"/>
<path d="M-322 114.21L-27.8023 18.645C-27.8023 18.645 369.708 74.6017 419.402 77.801C469.096 81.0004 946.651 175.802 1004 167.759C1061.33 159.713 1386.69 12.4922 1386.69 12.4922C1386.69 12.4922 1715.45 31.3754 1743.31 32.2981C1771.17 33.2209 1845.07 88.6315 1845.07 88.6315" stroke="white" stroke-opacity="0.6" stroke-width="0.5" stroke-miterlimit="10"/>
<path d="M-322 114.209L-25.4975 13.6343C-25.4975 13.6343 395.526 52.8853 453.499 56.6147C511.477 60.3473 946.651 194.142 1003.99 186.099C1061.33 178.053 1416.06 8.66284 1416.06 8.66284C1416.06 8.66284 1762.49 25.6654 1781.06 26.2816C1799.64 26.8947 1863.5 90.5016 1863.5 90.5016" stroke="white" stroke-opacity="0.6" stroke-width="0.5" stroke-miterlimit="10"/>
<path d="M-322 114.21L-23.1875 8.62162C-23.1875 8.62162 421.344 31.1639 487.601 35.4297C553.858 39.6955 946.651 212.482 1003.99 204.439C1061.33 196.393 1445.44 4.83154 1445.44 4.83154C1445.44 4.83154 1809.53 19.9534 1818.82 20.2631C1828.11 20.5697 1881.95 92.373 1881.95 92.373" stroke="white" stroke-opacity="0.6" stroke-width="0.5" stroke-miterlimit="10"/>
<path d="M-322 114.21L-20.8776 3.6086C-20.8776 3.6086 447.162 9.44539 521.703 14.2412C596.244 19.0402 946.656 230.82 1004 222.777C1061.33 214.73 1474.82 1 1474.82 1L1856.59 14.2412L1900.41 94.2376" stroke="white" stroke-opacity="0.6" stroke-width="0.5" stroke-miterlimit="10"/>
</g>
<path opacity="0.125" d="M-163.004 234.676C30.5035 231.91 46.085 206.71 171.904 219.424C297.722 232.138 412.625 271.946 552.008 243.6C691.39 215.25 772.19 124.62 863.704 163.244C955.217 201.868 952.058 256.804 1031.44 250.642C1110.82 244.48 1199.47 184.121 1262.19 183.575C1316.2 183.106 1266.77 237.861 1415.16 234.574" stroke="white" stroke-opacity="0.3" stroke-width="0.828522" stroke-miterlimit="10"/>
<path opacity="0.25" d="M-156.009 239.911C37.4986 237.149 47.8694 186.446 173.688 199.16C299.507 211.874 416.055 285.86 555.437 257.51C694.82 229.16 771.035 113.915 862.549 152.539C954.062 191.162 922.802 264.984 1002.19 258.821C1081.56 252.659 1174.06 180.25 1245.51 181.354C1299.5 182.187 1286.1 256.901 1434.46 242.885" stroke="white" stroke-opacity="0.3" stroke-width="0.920417" stroke-miterlimit="10"/>
<path opacity="0.375" d="M-149.013 245.148C44.4942 242.386 49.6542 166.179 175.473 178.897C301.292 191.611 419.48 299.771 558.863 271.425C698.246 243.075 769.88 103.219 861.394 141.842C952.907 180.466 893.546 273.168 972.93 267.01C1052.31 260.848 1148.66 176.956 1228.83 179.138C1282.8 180.61 1305.43 275.947 1453.77 251.2" stroke="white" stroke-opacity="0.3" stroke-width="1.01261" stroke-miterlimit="10"/>
<path opacity="0.5" d="M-142.018 250.38C51.4893 247.618 51.4386 145.911 177.257 158.625C303.076 171.339 422.91 313.678 562.293 285.328C701.676 256.978 768.725 92.5098 860.243 131.134C951.756 169.757 864.299 281.344 943.678 275.186C1023.06 269.023 1123.26 173.551 1212.15 176.909C1266.1 178.948 1324.77 294.98 1473.08 259.498" stroke="white" stroke-opacity="0.3" stroke-width="1.1045" stroke-miterlimit="10"/>
<path opacity="0.625" d="M-135.022 255.616C58.4852 252.854 53.2237 125.648 179.042 138.362C304.861 151.076 426.341 327.589 565.719 299.243C705.102 270.893 767.571 81.8137 859.085 120.437C950.598 159.061 835.04 289.532 914.423 283.37C993.802 277.207 1097.86 170.062 1195.47 174.693C1249.4 177.252 1344.1 314.025 1492.38 267.814" stroke="white" stroke-opacity="0.3" stroke-width="1.19669" stroke-miterlimit="10"/>
<path opacity="0.75" d="M-128.027 260.852C65.4803 258.09 55.0081 105.384 180.827 118.098C306.646 130.812 429.766 341.5 569.149 313.154C708.531 284.808 766.42 71.1129 857.934 109.737C949.447 148.36 805.793 297.716 885.172 291.554C964.555 285.391 1072.47 166.479 1178.79 172.472C1232.72 175.513 1363.43 333.066 1511.69 276.125" stroke="white" stroke-opacity="0.3" stroke-width="1.28858" stroke-miterlimit="10"/>
<path opacity="0.875" d="M-121.031 266.088C72.4764 263.326 56.7977 85.1211 182.612 97.8349C308.431 110.549 433.196 355.415 572.579 327.065C711.962 298.714 765.266 60.4083 856.779 99.032C948.293 137.656 776.538 305.896 855.921 299.734C935.3 293.571 1047.09 162.796 1162.11 170.252C1216.03 173.746 1382.77 352.107 1531 284.436" stroke="white" stroke-opacity="0.3" stroke-width="1.38077" stroke-miterlimit="10"/>
<path d="M-114.035 271.324C79.472 268.562 58.5826 64.8574 184.401 77.5712C310.22 90.2851 436.631 369.325 576.014 340.979C715.396 312.629 764.12 49.7117 855.633 88.3353C947.147 126.959 747.295 314.08 826.674 307.922C906.057 301.759 1021.73 159.027 1145.44 168.036C1199.35 171.961 1402.11 371.153 1550.31 292.746" stroke="white" stroke-opacity="0.3" stroke-width="1.47267" stroke-miterlimit="10"/>
</svg>
